<svg xmlns="http://www.w3.org/2000/svg" width="512" height="512" viewBox="0 0 512 512">
  <title>pluginval</title>
            <path d="M88,0 L136,0 C149.254834,0 160,10.745166 160,24 L160,48 L64,48 L64,24 C64,10.745166 74.745166,0 88,0 Z" id="Shape" fill="#000000" fill-rule="nonzero"></path>
            <path d="M312,0 L360,0 C373.254834,0 384,10.745166 384,24 L384,48 L288,48 L288,24 C288,10.745166 298.745166,0 312,0 Z" id="Shape" fill="#000000" fill-rule="nonzero"></path>
            <path d="M424,64 L24,64 C9.287,64 0,73.287 0,88 L0,352 L448,352 L448,88 C448,73.287 438.713,64 424,64 Z" id="Shape" fill="#000000" fill-rule="nonzero"></path>
            <path d="M205.029,295.437 C194.629,305.837 181.492,305.837 171.088,295.437 L86.235,210.584 L120.177,176.643 L188.059,244.525 L323.823,108.761 L357.765,142.7 L205.029,295.437 Z" id="Path" fill="#FFFFFF"></path>
</svg>